<svg width="16" height="16" viewBox="0 0 16 16" fill="none" xmlns="http://www.w3.org/2000/svg">
<path fill-rule="evenodd" clip-rule="evenodd" d="M16 8C16 12.4183 12.4183 16 8 16C3.58172 16 0 12.4183 0 8C0 3.58172 3.58172 0 8 0C12.4183 0 16 3.58172 16 8ZM11.4685 7.99954L11.1141 10.3126H9.24993V15.9028C8.84267 15.9658 8.42529 15.9995 8.00003 15.9995C7.57477 15.9995 7.15739 15.9669 6.75013 15.9028V10.3126H4.71835V7.99954H6.75013V6.23664C6.75013 4.23073 7.9449 3.12371 9.77193 3.12371C10.6472 3.12371 11.563 3.28009 11.563 3.28009V5.24887H10.5538C9.55931 5.24887 9.24993 5.86651 9.24993 6.49877V7.99954H11.4685Z" fill="#272727"/>
</svg>
