<svg width="24" height="24" viewBox="0 0 24 24" fill="none" xmlns="http://www.w3.org/2000/svg">
<path d="M21 15V11C21 9.89543 20.1046 9 19 9C17.8954 9 17 9.89543 17 11V15C17 16.1046 17.8954 17 19 17C20.1046 17 21 16.1046 21 15Z" stroke="white" stroke-width="1.5"/>
<path d="M14 19L12 19C11.4477 19 11 19.4477 11 20C11 20.5523 11.4477 21 12 21L14 21C14.5523 21 15 20.5523 15 20C15 19.4477 14.5523 19 14 19Z" stroke="white" stroke-width="1.5"/>
<path d="M19 9V9C19 6.23858 16.7614 4 14 4H10C7.23858 4 5 6.23858 5 9V9" stroke="white" stroke-width="1.5"/>
<path d="M7 15V11C7 9.89543 6.10457 9 5 9C3.89543 9 3 9.89543 3 11V15C3 16.1046 3.89543 17 5 17C6.10457 17 7 16.1046 7 15Z" stroke="white" stroke-width="1.5"/>
<path d="M18 17V17C18 18.6569 16.6569 20 15 20V20" stroke="white" stroke-width="1.5"/>
</svg>
